<svg width="25" height="24" viewBox="0 0 25 24" fill="none" xmlns="http://www.w3.org/2000/svg">
<path d="M12.5 22.6648C12.1441 22.6648 11.8009 22.541 11.5335 22.3162C10.5236 21.4684 9.54989 20.6717 8.69082 19.9689L8.68643 19.9653C6.16778 17.9048 3.99284 16.1254 2.47955 14.3725C0.787924 12.4129 0 10.5549 0 8.52521C0 6.55316 0.704382 4.73383 1.98326 3.4021C3.27739 2.05463 5.05313 1.3125 6.98393 1.3125C8.42703 1.3125 9.74863 1.75049 10.9119 2.6142C11.499 3.05017 12.0312 3.58374 12.5 4.20612C12.969 3.58374 13.501 3.05017 14.0882 2.6142C15.2515 1.75049 16.5731 1.3125 18.0162 1.3125C19.9468 1.3125 21.7228 2.05463 23.0169 3.4021C24.2958 4.73383 25 6.55316 25 8.52521C25 10.5549 24.2122 12.4129 22.5206 14.3723C21.0073 16.1254 18.8326 17.9046 16.3143 19.9649C15.4537 20.6688 14.4785 21.4667 13.4662 22.3165C13.199 22.541 12.8557 22.6648 12.5 22.6648ZM6.98393 2.71838C5.46702 2.71838 4.07352 3.29956 3.05976 4.35498C2.03094 5.42633 1.46427 6.90729 1.46427 8.52521C1.46427 10.2323 2.12516 11.759 3.60698 13.4755C5.03921 15.1346 7.16952 16.8774 9.6361 18.8954L9.64068 18.899C10.503 19.6046 11.4805 20.4044 12.4979 21.2584C13.5214 20.4027 14.5004 19.6016 15.3644 18.895C17.8308 16.877 19.9609 15.1346 21.3932 13.4755C22.8748 11.759 23.5357 10.2323 23.5357 8.52521C23.5357 6.90729 22.969 5.42633 21.9402 4.35498C20.9266 3.29956 19.5329 2.71838 18.0162 2.71838C16.905 2.71838 15.8848 3.0575 14.9839 3.7262C14.1811 4.32239 13.6219 5.07605 13.294 5.60339C13.1254 5.87457 12.8286 6.03644 12.5 6.03644C12.1713 6.03644 11.8746 5.87457 11.7059 5.60339C11.3783 5.07605 10.819 4.32239 10.016 3.7262C9.1152 3.0575 8.09496 2.71838 6.98393 2.71838Z" fill="white"/>
</svg>
